<svg width="32" height="33" viewBox="0 0 32 33" fill="none" xmlns="http://www.w3.org/2000/svg">
<path fill-rule="evenodd" clip-rule="evenodd" d="M3.85379 13.979C3.56613 13.5076 2.95075 13.3586 2.47929 13.6463C2.00784 13.9339 1.85884 14.5493 2.1465 15.0208C2.26376 15.2129 2.69465 15.7471 3.33234 16.4054C3.99631 17.0909 4.93997 17.9687 6.12612 18.8435C6.36456 19.0194 6.61342 19.1955 6.87236 19.3703L4.70714 21.5355C4.31662 21.9261 4.31662 22.5592 4.70714 22.9497C5.09767 23.3403 5.73083 23.3403 6.12136 22.9497L8.63401 20.4371C10.4395 21.4088 12.5856 22.1997 15.0001 22.4358V26C15.0001 26.5522 15.4478 27 16.0001 27C16.5524 27 17.0001 26.5522 17.0001 26V22.4464C18.6183 22.2912 21.2423 21.7579 23.9143 20.3284L26.5357 22.9497C26.9262 23.3402 27.5593 23.3402 27.9499 22.9497C28.3404 22.5592 28.3404 21.926 27.9499 21.5355L25.6682 19.2538C27.163 18.2106 28.6063 16.8454 29.8253 15.0648C30.1373 14.6091 30.0208 13.9868 29.5651 13.6748C29.1094 13.3628 28.487 13.4793 28.175 13.935C24.3341 19.545 17.8792 20.4943 16.0166 20.4999C12.4786 20.376 9.48234 18.8336 7.3132 17.2339C6.23119 16.4359 5.37012 15.6346 4.76888 15.0139C4.21213 14.4391 3.91729 14.0603 3.86291 13.9905C3.856 13.9816 3.85298 13.9777 3.85379 13.979Z" fill="#B3B3BC"/>
</svg>
